HIERARCHY
ROOT Hips
{
	OFFSET 0.000000 100.481300 0.000000
	CHANNELS 6 Xposition Yposition Zposition Xrotation Yrotation Zrotation
	JOINT Spine
	{
		OFFSET -0.279200 12.230698 -2.892100
		CHANNELS 3 Xrotation Yrotation Zrotation
		JOINT Spine1
		{
			OFFSET -0.325700 14.269203 -3.374200
			CHANNELS 3 Xrotation Yrotation Zrotation
			JOINT Spine2
			{
				OFFSET -0.372300 16.307602 -0.352600
				CHANNELS 3 Xrotation Yrotation Zrotation
				JOINT Neck
				{
					OFFSET -0.418800 17.814194 8.416900
					CHANNELS 3 Xrotation Yrotation Zrotation
					JOINT Head
					{
						OFFSET 0.000000 7.031097 3.806800
						CHANNELS 3 Xrotation Yrotation Zrotation
						JOINT HeadTop_End
						{
							OFFSET 0.000000 24.646606 12.978600
							CHANNELS 3 Xrotation Yrotation Zrotation
							End Site
							{
								OFFSET 0.000000 27.854965 0.000000
							}
						}
					}
				}
				JOINT LeftShoulder
				{
					OFFSET 16.952999 14.495407 -7.737500
					CHANNELS 3 Xrotation Yrotation Zrotation
					JOINT LeftArm
					{
						OFFSET 9.308998 -2.777710 0.208600
						CHANNELS 3 Xrotation Yrotation Zrotation
						JOINT LeftForeArm
						{
							OFFSET 29.972298 0.000000 0.000000
							CHANNELS 3 Xrotation Yrotation Zrotation
							JOINT LeftHand
							{
								OFFSET 26.026505 0.000000 0.000000
								CHANNELS 3 Xrotation Yrotation Zrotation
								JOINT LeftHandThumb1
								{
									OFFSET 12.240501 -7.147949 9.207150
									CHANNELS 3 Xrotation Yrotation Zrotation
									JOINT LeftHandThumb2
									{
										OFFSET 4.138618 -2.389435 2.389433
										CHANNELS 3 Xrotation Yrotation Zrotation
										JOINT LeftHandThumb3
										{
											OFFSET 2.726913 -1.574387 1.574386
											CHANNELS 3 Xrotation Yrotation Zrotation
											JOINT LeftHandThumb4
											{
												OFFSET 3.941010 -2.275345 2.275342
												CHANNELS 3 Xrotation Yrotation Zrotation
												End Site
												{
													OFFSET -0.005798 5.087799 0.009903
												}
											}
										}
									}
								}
								JOINT LeftHandIndex1
								{
									OFFSET 24.424698 -1.985611 5.953459
									CHANNELS 3 Xrotation Yrotation Zrotation
									JOINT LeftHandIndex2
									{
										OFFSET 6.426697 0.000000 0.000000
										CHANNELS 3 Xrotation Yrotation Zrotation
										JOINT LeftHandIndex3
										{
											OFFSET 5.337898 0.000000 0.000000
											CHANNELS 3 Xrotation Yrotation Zrotation
											JOINT LeftHandIndex4
											{
												OFFSET 4.409401 0.000000 0.000000
												CHANNELS 3 Xrotation Yrotation Zrotation
												End Site
												{
													OFFSET 0.000000 4.409363 0.014373
												}
											}
										}
									}
								}
								JOINT LeftHandMiddle1
								{
									OFFSET 23.810104 0.000000 0.000000
									CHANNELS 3 Xrotation Yrotation Zrotation
									JOINT LeftHandMiddle2
									{
										OFFSET 7.176498 0.000000 0.000000
										CHANNELS 3 Xrotation Yrotation Zrotation
										JOINT LeftHandMiddle3
										{
											OFFSET 6.774902 0.000000 0.000000
											CHANNELS 3 Xrotation Yrotation Zrotation
											JOINT LeftHandMiddle4
											{
												OFFSET 5.403328 0.000000 0.000000
												CHANNELS 3 Xrotation Yrotation Zrotation
												End Site
												{
													OFFSET -0.027702 5.403244 0.017414
												}
											}
										}
									}
								}
								JOINT LeftHandRing1
								{
									OFFSET 22.908401 -0.839279 -6.020567
									CHANNELS 3 Xrotation Yrotation Zrotation
									JOINT LeftHandRing2
									{
										OFFSET 6.337502 0.000000 0.000000
										CHANNELS 3 Xrotation Yrotation Zrotation
										JOINT LeftHandRing3
										{
											OFFSET 5.779297 0.000000 0.000000
											CHANNELS 3 Xrotation Yrotation Zrotation
											JOINT LeftHandRing4
											{
												OFFSET 4.965698 0.000000 0.000000
												CHANNELS 3 Xrotation Yrotation Zrotation
												End Site
												{
													OFFSET 0.000000 4.965668 0.016186
												}
											}
										}
									}
								}
								JOINT LeftHandPinky1
								{
									OFFSET 20.037003 -1.530319 -10.950146
									CHANNELS 3 Xrotation Yrotation Zrotation
									JOINT LeftHandPinky2
									{
										OFFSET 5.254700 0.000000 0.000000
										CHANNELS 3 Xrotation Yrotation Zrotation
										JOINT LeftHandPinky3
										{
											OFFSET 4.810204 0.000000 0.000000
											CHANNELS 3 Xrotation Yrotation Zrotation
											JOINT LeftHandPinky4
											{
												OFFSET 3.647202 0.000000 0.000000
												CHANNELS 3 Xrotation Yrotation Zrotation
												End Site
												{
													OFFSET 0.000000 3.647186 0.011889
												}
											}
										}
									}
								}
							}
						}
					}
				}
				JOINT RightShoulder
				{
					OFFSET -15.141001 14.495407 -7.737500
					CHANNELS 3 Xrotation Yrotation Zrotation
					JOINT RightArm
					{
						OFFSET -9.308998 -2.777710 0.208500
						CHANNELS 3 Xrotation Yrotation Zrotation
						JOINT RightForeArm
						{
							OFFSET -29.972300 0.000000 0.000000
							CHANNELS 3 Xrotation Yrotation Zrotation
							JOINT RightHand
							{
								OFFSET -26.026505 0.000000 0.000000
								CHANNELS 3 Xrotation Yrotation Zrotation
								JOINT RightHandThumb1
								{
									OFFSET -12.240601 -7.148026 9.207092
									CHANNELS 3 Xrotation Yrotation Zrotation
									JOINT RightHandThumb2
									{
										OFFSET -4.138618 -2.389435 2.389433
										CHANNELS 3 Xrotation Yrotation Zrotation
										JOINT RightHandThumb3
										{
											OFFSET -2.726974 -1.574417 1.574421
											CHANNELS 3 Xrotation Yrotation Zrotation
											JOINT RightHandThumb4
											{
												OFFSET -3.941010 -2.275345 2.275343
												CHANNELS 3 Xrotation Yrotation Zrotation
												End Site
												{
													OFFSET 0.005814 5.087799 0.009927
												}
											}
										}
									}
								}
								JOINT RightHandIndex1
								{
									OFFSET -24.424698 -1.985657 5.953444
									CHANNELS 3 Xrotation Yrotation Zrotation
									JOINT RightHandIndex2
									{
										OFFSET -6.426697 0.000000 0.000000
										CHANNELS 3 Xrotation Yrotation Zrotation
										JOINT RightHandIndex3
										{
											OFFSET -5.337898 0.000000 0.000000
											CHANNELS 3 Xrotation Yrotation Zrotation
											JOINT RightHandIndex4
											{
												OFFSET -4.409401 0.000000 0.000000
												CHANNELS 3 Xrotation Yrotation Zrotation
												End Site
												{
													OFFSET 0.000000 4.409363 0.014408
												}
											}
										}
									}
								}
								JOINT RightHandMiddle1
								{
									OFFSET -23.810097 0.000000 0.000000
									CHANNELS 3 Xrotation Yrotation Zrotation
									JOINT RightHandMiddle2
									{
										OFFSET -7.176498 0.000000 0.000000
										CHANNELS 3 Xrotation Yrotation Zrotation
										JOINT RightHandMiddle3
										{
											OFFSET -6.774902 0.000000 0.000000
											CHANNELS 3 Xrotation Yrotation Zrotation
											JOINT RightHandMiddle4
											{
												OFFSET -5.403328 0.000000 0.000000
												CHANNELS 3 Xrotation Yrotation Zrotation
												End Site
												{
													OFFSET 0.027702 5.403244 0.017457
												}
											}
										}
									}
								}
								JOINT RightHandRing1
								{
									OFFSET -22.908302 -0.839325 -6.020576
									CHANNELS 3 Xrotation Yrotation Zrotation
									JOINT RightHandRing2
									{
										OFFSET -6.337502 0.000000 0.000000
										CHANNELS 3 Xrotation Yrotation Zrotation
										JOINT RightHandRing3
										{
											OFFSET -5.779297 0.000000 0.000000
											CHANNELS 3 Xrotation Yrotation Zrotation
											JOINT RightHandRing4
											{
												OFFSET -4.965698 0.000000 0.000000
												CHANNELS 3 Xrotation Yrotation Zrotation
												End Site
												{
													OFFSET 0.000000 4.965668 0.016226
												}
											}
										}
									}
								}
								JOINT RightHandPinky1
								{
									OFFSET -20.037003 -1.530334 -10.950259
									CHANNELS 3 Xrotation Yrotation Zrotation
									JOINT RightHandPinky2
									{
										OFFSET -5.254700 0.000000 0.000000
										CHANNELS 3 Xrotation Yrotation Zrotation
										JOINT RightHandPinky3
										{
											OFFSET -4.810204 0.000000 0.000000
											CHANNELS 3 Xrotation Yrotation Zrotation
											JOINT RightHandPinky4
											{
												OFFSET -3.647202 0.000000 0.000000
												CHANNELS 3 Xrotation Yrotation Zrotation
												End Site
												{
													OFFSET 0.000000 3.647186 0.011917
												}
											}
										}
									}
								}
							}
						}
					}
				}
			}
		}
	}
	JOINT LeftUpLeg
	{
		OFFSET 15.427100 -6.655098 0.678600
		CHANNELS 3 Xrotation Yrotation Zrotation
		JOINT LeftLeg
		{
			OFFSET 4.081073 -39.591068 13.024000
			CHANNELS 3 Xrotation Yrotation Zrotation
			JOINT LeftFoot
			{
				OFFSET -4.081074 -37.707932 -15.979700
				CHANNELS 3 Xrotation Yrotation Zrotation
				JOINT LeftToeBase
				{
					OFFSET 5.346399 -15.068900 20.645000
					CHANNELS 3 Xrotation Yrotation Zrotation
					JOINT LeftToe_End
					{
						OFFSET 2.754700 0.931300 11.300900
						CHANNELS 3 Xrotation Yrotation Zrotation
						End Site
						{
							OFFSET 0.000000 11.669021 0.000000
						}
					}
				}
			}
		}
	}
	JOINT RightUpLeg
	{
		OFFSET -15.569500 -6.655098 0.678600
		CHANNELS 3 Xrotation Yrotation Zrotation
		JOINT RightLeg
		{
			OFFSET -4.081825 -39.591045 13.023800
			CHANNELS 3 Xrotation Yrotation Zrotation
			JOINT RightFoot
			{
				OFFSET 4.081824 -37.707954 -15.979600
				CHANNELS 3 Xrotation Yrotation Zrotation
				JOINT RightToeBase
				{
					OFFSET -5.346400 -15.068900 20.645000
					CHANNELS 3 Xrotation Yrotation Zrotation
					JOINT RightToe_End
					{
						OFFSET -2.754700 0.931300 11.300900
						CHANNELS 3 Xrotation Yrotation Zrotation
						End Site
						{
							OFFSET 0.000000 11.669021 0.000000
						}
					}
				}
			}
		}
	}
}
MOTION
Frames: 4
Frame Time: 0.033333
1.998126 93.414474 -3.831982 -2.394990 -5.317275 -1.289512 10.448432 3.098112 -2.540682 1.287660 0.463882 -0.136533 1.285365 0.467079 -0.136833 8.055006 -0.951943 1.103945 27.633991 -3.597781 4.786168 -0.000000 0.000000 -0.000000 0.485183 -1.309931 -4.393852 13.277865 -31.528023 -64.564836 0.000010 -35.227114 0.000019 7.668316 2.120001 10.183063 -2.364268 7.304315 7.735316 5.630682 21.324848 5.195593 2.210980 15.135154 7.249010 0.000000 0.000002 0.000002 0.112408 1.241582 -10.345953 0.182801 1.579215 -13.205910 0.136612 1.367523 -11.409122 -0.000002 0.000000 -0.000001 0.026163 0.600944 -4.986280 0.246433 1.829156 -15.344874 0.136610 1.367518 -11.409134 0.000004 -0.000001 0.000000 0.061215 0.917923 -7.629526 0.215045 1.710718 -14.328723 0.136611 1.367510 -11.409129 0.000003 -0.000003 -0.000002 0.352569 4.628965 -4.382099 0.257452 -2.183034 -16.219017 0.136615 1.367513 -11.409132 -0.000004 0.000000 0.000000 0.402380 0.220812 3.826485 4.945592 48.695704 64.226557 0.000003 21.780450 0.000017 0.813525 6.004514 1.757161 -2.228951 -8.395530 -11.304589 9.932194 -19.275499 -2.235939 4.120798 -12.094985 -5.961029 -0.000003 -0.000004 -0.000003 0.063990 -0.943180 7.763844 0.362246 -2.219076 18.539915 0.064006 -0.943185 7.763839 0.000003 -0.000000 -0.000000 0.063991 -0.943180 7.763843 0.362245 -2.219076 18.539912 0.064008 -0.943179 7.763845 -0.000001 -0.000000 0.000000 0.063990 -0.943181 7.763843 0.362241 -2.219077 18.539912 0.064004 -0.943183 7.763838 0.000000 -0.000000 0.000001 0.063990 -0.943180 7.763843 0.362247 -2.219078 18.539913 0.064001 -0.943182 7.763837 -0.000001 -0.000002 -0.000002 -8.280717 16.144592 1.237012 22.720085 1.473260 -0.898215 -12.695512 -2.597613 4.210066 -0.909475 -0.000003 0.000000 0.000000 -0.000000 -0.000000 -9.155315 -5.670844 -0.277393 21.772560 -7.887640 0.580883 -10.048972 -0.622794 1.017111 -1.532580 0.000002 -0.000001 -0.000000 0.000000 -0.000000 
2.194086 93.470650 -3.892026 -2.308599 -5.455330 -1.278211 10.718326 2.849774 -2.631876 1.351385 0.430016 -0.072986 1.349964 0.434995 -0.073937 7.581410 -0.716906 1.102836 26.433297 -2.288453 3.347928 -0.000001 0.000000 0.000000 0.476164 -1.237163 -3.934283 14.469442 -31.038388 -63.864693 0.000018 -38.780769 0.000017 10.622303 2.569329 7.938926 -2.363360 7.307422 7.736329 5.630468 21.336686 5.200350 2.213055 15.147502 7.253753 -0.000002 0.000002 0.000003 0.130479 1.336785 -11.149308 0.218525 1.724295 -14.444960 0.159634 1.477019 -12.337061 -0.000002 -0.000001 -0.000002 0.029682 0.639997 -5.311016 0.299089 2.011117 -16.916449 0.159656 1.477039 -12.337039 -0.000002 -0.000000 0.000001 0.072871 1.001142 -8.325947 0.258210 1.871537 -15.709877 0.159643 1.477036 -12.337062 0.000001 -0.000000 0.000000 0.379413 4.666689 -4.713389 0.296304 -2.054245 -17.332269 0.159647 1.477025 -12.337073 -0.000006 -0.000001 -0.000000 0.441708 0.830966 3.443723 2.525479 49.279265 65.336531 -0.000012 19.761047 0.000003 0.517928 5.714375 3.229052 -2.227291 -8.410261 -11.316216 9.939347 -19.288640 -2.236011 4.128244 -12.115452 -5.966252 -0.000000 0.000001 0.000004 0.070721 -0.991148 8.161383 0.398630 -2.324699 19.457935 0.070722 -0.991151 8.161382 0.000002 0.000001 0.000000 0.070722 -0.991148 8.161380 0.398632 -2.324700 19.457933 0.070712 -0.991146 8.161390 -0.000001 -0.000001 0.000000 0.070721 -0.991150 8.161382 0.398629 -2.324700 19.457930 0.070721 -0.991150 8.161385 0.000000 -0.000001 0.000001 0.070721 -0.991148 8.161380 0.398632 -2.324702 19.457930 0.070721 -0.991150 8.161383 -0.000003 -0.000000 0.000000 -8.235125 16.371422 0.603003 22.389807 0.648558 -0.316977 -12.527965 -1.414539 3.978600 -0.613216 0.000004 0.000000 -0.000000 0.000000 0.000000 -9.224965 -5.597110 -0.319181 21.570902 -7.244694 0.776110 -9.871415 -1.279175 0.737620 -1.500283 -0.000013 -0.000000 -0.000000 -0.000001 -0.000000 
2.391767 93.413635 -3.905690 -2.205307 -5.567406 -1.178822 11.056940 2.678838 -2.863938 1.241880 0.410671 -0.049046 1.241377 0.416053 -0.051071 7.262392 -0.492147 1.106479 25.409176 -1.156600 2.937788 0.000002 -0.000000 0.000001 0.462256 -1.267744 -3.153946 15.497783 -29.544772 -63.818631 -0.000010 -42.606454 0.000003 13.942049 3.010585 5.833151 -2.361266 7.314637 7.738668 5.629937 21.363946 5.211309 2.217831 15.175992 7.264701 0.000002 -0.000001 -0.000000 0.153088 1.446798 -12.080471 0.253551 1.854890 -15.566419 0.180788 1.570556 -13.132157 0.000000 -0.000001 -0.000002 0.034436 0.689229 -5.721022 0.347681 2.164369 -18.250306 0.180809 1.570564 -13.132146 0.000003 0.000001 0.000000 0.084610 1.078341 -8.973192 0.299984 2.014078 -16.941999 0.180789 1.570555 -13.132161 0.000003 -0.000000 -0.000000 0.413327 4.713706 -5.128385 0.337685 -1.926154 -18.446218 0.180792 1.570572 -13.132161 0.000001 -0.000002 -0.000002 0.457341 1.088421 2.968378 0.447397 47.834397 66.957936 0.000000 19.299425 -0.000005 1.262322 4.296713 4.906271 -2.223168 -8.447039 -11.345251 9.957242 -19.321541 -2.236186 4.146849 -12.166658 -5.979332 0.000001 0.000002 0.000002 0.081858 -1.065863 8.781401 0.450594 -2.466748 20.701265 0.081847 -1.065855 8.781422 0.000004 0.000002 0.000000 0.081859 -1.065863 8.781400 0.450594 -2.466750 20.701265 0.081846 -1.065858 8.781426 -0.000001 0.000001 0.000002 0.081850 -1.065857 8.781404 0.450601 -2.466758 20.701258 0.081840 -1.065854 8.781420 0.000004 -0.000001 0.000001 0.081858 -1.065863 8.781400 0.450594 -2.466752 20.701265 0.081844 -1.065853 8.781421 0.000001 -0.000000 0.000000 -8.446866 16.311600 0.197126 22.615125 0.739213 -0.162535 -12.616527 -1.433152 4.471741 -1.053103 -0.000005 0.000001 0.000000 0.000001 -0.000000 -9.724740 -5.471206 -0.494404 21.980184 -6.394044 0.972974 -9.651349 -1.876833 0.474122 -2.760439 0.000009 0.000001 -0.000000 -0.000001 -0.000000 
2.596493 93.531487 -3.884601 -2.092669 -5.576178 -1.059554 11.278991 2.635135 -3.214499 1.037748 0.410600 -0.021427 1.037449 0.416062 -0.024645 7.105040 -0.346056 1.089755 24.747696 -0.503837 3.088022 0.000000 -0.000000 0.000000 0.449319 -1.352115 -2.283189 16.855686 -27.499243 -63.744837 0.000012 -48.071664 0.000020 17.894425 4.536049 2.682538 -2.358563 7.323938 7.741719 5.629263 21.399165 5.225469 2.223995 15.212814 7.278848 -0.000004 0.000001 -0.000003 0.198443 1.644356 -13.761491 0.305210 2.031137 -17.090122 0.208909 1.686453 -14.121144 -0.000001 0.000001 -0.000001 0.044637 0.784414 -6.514506 0.411961 2.350195 -19.882044 0.208895 1.686463 -14.121146 0.000001 -0.000000 -0.000001 0.102670 1.187077 -9.887004 0.360227 2.201980 -18.579407 0.208888 1.686456 -14.121128 0.000003 -0.000000 -0.000001 0.479567 4.803443 -5.926914 0.406848 -1.728844 -20.176464 0.208910 1.686461 -14.121125 -0.000000 0.000000 0.000001 0.440154 0.963544 2.400963 0.207483 45.938934 67.545441 0.000003 20.861216 0.000002 2.952945 2.269833 6.828939 -2.217279 -8.500444 -11.387419 9.983179 -19.369312 -2.236468 4.173808 -12.240981 -5.998363 0.000005 -0.000001 -0.000000 0.097721 -1.164017 9.597584 0.518777 -2.639961 22.231625 0.097719 -1.164017 9.597584 0.000001 0.000000 -0.000003 0.097722 -1.164017 9.597583 0.518778 -2.639963 22.231622 0.097716 -1.164011 9.597585 -0.000000 -0.000001 -0.000001 0.097721 -1.164019 9.597580 0.518777 -2.639960 22.231624 0.097714 -1.164015 9.597584 0.000002 -0.000000 -0.000000 0.097721 -1.164017 9.597583 0.518781 -2.639966 22.231624 0.097719 -1.164017 9.597582 0.000004 -0.000000 -0.000003 -8.252069 15.182530 0.152301 22.132169 1.718694 -0.758072 -12.374317 -1.554969 4.491569 -1.230245 -0.000002 -0.000001 -0.000000 -0.000000 0.000000 -10.207188 -5.438507 -0.537754 22.160868 -5.093965 1.053498 -9.005267 -2.885454 0.091503 -3.721700 0.000002 0.000001 0.000000 0.000004 0.000000 
